<svg width="16" height="16" viewBox="0 0 16 16" fill="none" xmlns="http://www.w3.org/2000/svg">
<g clip-path="url(#clip0)">
<path d="M0.649 7.34686L4.31712 9.17499C4.459 9.24499 4.6265 9.23999 4.76212 9.16061L8.02712 7.26249L6.05087 9.01374C5.95025 9.10311 5.89275 9.23061 5.89275 9.36499V13.6306C5.89275 14.0806 6.46712 14.27 6.7365 13.9125L8.32212 11.8044L12.2434 14.0375C12.5184 14.1956 12.8709 14.0369 12.9346 13.7225L15.3802 1.53499C15.4534 1.16874 15.089 0.869987 14.7502 1.00624L0.68775 6.49061C0.31025 6.63811 0.285875 7.16624 0.649 7.34686V7.34686ZM14.2927 2.19124L12.1434 12.9019L8.42775 10.7856C8.22525 10.67 7.96462 10.7212 7.82087 10.9112L6.83025 12.2281V9.57561L12.1746 4.84061C12.5977 4.46624 12.1115 3.80061 11.6284 4.08436L4.50962 8.22311L2.01462 6.97999L14.2927 2.19124Z" fill="white"/>
</g>
<defs>
<clipPath id="clip0">
<rect width="15" height="15" fill="white" transform="translate(0.389648 0.349365)"/>
</clipPath>
</defs>
</svg>
