<svg width="15" height="14" viewBox="0 0 15 14" fill="none" xmlns="http://www.w3.org/2000/svg">
<path d="M0.258863 6.37421L3.92699 8.20233C4.06886 8.27233 4.23636 8.26733 4.37199 8.18796L7.63699 6.28983L5.66074 8.04108C5.56011 8.13046 5.50261 8.25796 5.50261 8.39233V12.658C5.50261 13.108 6.07699 13.2973 6.34636 12.9398L7.93199 10.8317L11.8532 13.0648C12.1282 13.223 12.4807 13.0642 12.5445 12.7498L14.9901 0.562331C15.0632 0.196081 14.6989 -0.102669 14.3601 0.0335807L0.297613 5.51796C-0.0798865 5.66546 -0.104262 6.19358 0.258863 6.37421ZM13.9026 1.21858L11.7532 11.9292L8.03761 9.81296C7.83511 9.69733 7.57449 9.74858 7.43074 9.93858L6.44011 11.2555V8.60296L11.7845 3.86796C12.2076 3.49358 11.7214 2.82796 11.2382 3.11171L4.11949 7.25046L1.62449 6.00733L13.9026 1.21858Z" fill="white"/>
</svg>
