<svg width="14" height="16" viewBox="0 0 14 16" fill="none" xmlns="http://www.w3.org/2000/svg">
<path d="M13.6095 8.69108C14.057 4.9242 13.3945 2.54608 12.1995 1.47045C10.2707 -0.366421 3.75762 -0.638922 1.45012 1.55233C0.413873 2.6242 0.0488729 4.19733 0.00887287 6.14483C-0.0311271 8.09296 -0.0786273 11.7423 3.322 12.7323H3.32512L3.322 14.2442C3.322 14.2442 3.29887 14.8567 3.69012 14.9798C4.13762 15.1248 4.34012 14.8405 5.732 13.178C8.0595 13.3798 9.847 12.9173 10.0501 12.8498C10.5201 12.6923 13.1795 12.3405 13.6095 8.69108ZM5.96137 12.1142C5.96137 12.1142 4.48825 13.9511 4.03012 14.428C3.88012 14.583 3.71575 14.5686 3.71825 14.2611C3.71825 14.0592 3.7295 11.7511 3.7295 11.7511C0.846373 10.9248 1.01637 7.81733 1.04762 6.19171C1.07887 4.56545 1.37637 3.23358 2.25387 2.3367C4.27825 0.438579 9.98887 0.862954 11.4439 2.23045C13.2226 3.80733 12.5895 8.26233 12.5932 8.41421C12.2276 11.4605 10.0726 11.6536 9.67637 11.7855C9.507 11.8417 7.93512 12.2461 5.96137 12.1142Z" fill="white"/>
<path d="M6.77638 2.69358C6.53575 2.69358 6.53575 3.06858 6.77638 3.0717C8.64325 3.08608 10.1808 4.38733 10.1976 6.7742C10.1976 7.02608 10.5664 7.02295 10.5633 6.77108C10.5433 4.1992 8.86388 2.70795 6.77638 2.69358Z" fill="white"/>
<path d="M9.232 6.37858C9.22637 6.62733 9.5945 6.63921 9.59763 6.38733C9.62825 4.96921 8.75387 3.80108 7.11075 3.67796C6.87012 3.66046 6.84512 4.03858 7.08512 4.05608C8.51012 4.16421 9.26075 5.13671 9.232 6.37858Z" fill="white"/>
<path d="M8.83825 7.9917C8.5295 7.81295 8.21513 7.9242 8.08513 8.09982L7.81325 8.4517C7.67513 8.63045 7.417 8.6067 7.417 8.6067C5.53325 8.10857 5.0295 6.13732 5.0295 6.13732C5.0295 6.13732 5.00638 5.87045 5.17888 5.72732L5.51888 5.44607C5.68888 5.31107 5.79638 4.98607 5.62325 4.6667C5.16075 3.83107 4.85013 3.54295 4.692 3.3217C4.52575 3.11357 4.27575 3.0667 4.01575 3.20732H4.01013C3.4695 3.52357 2.87763 4.11545 3.067 4.72482C3.39013 5.36732 3.98388 7.41545 5.87638 8.96295C6.76575 9.69482 8.17325 10.4448 8.77075 10.6179L8.77638 10.6267C9.36513 10.8229 9.93762 10.2079 10.2432 9.65107V9.6467C10.3789 9.37732 10.3339 9.12232 10.1357 8.95545C9.7845 8.61295 9.2545 8.23482 8.83825 7.9917Z" fill="white"/>
<path d="M7.36826 5.07295C7.96888 5.10795 8.26013 5.4217 8.29138 6.06608C8.30263 6.31795 8.66826 6.30045 8.65701 6.04858C8.61701 5.20733 8.17826 4.73857 7.38826 4.69482C7.14763 4.68045 7.12513 5.05858 7.36826 5.07295Z" fill="white"/>
</svg>
