<svg width="15" height="15" viewBox="0 0 15 15" fill="none" xmlns="http://www.w3.org/2000/svg">
<path d="M12.7711 2.17827C11.362 0.774422 9.4875 0.000801088 7.49245 0C5.50186 0 3.62434 0.772934 2.20596 2.17644C0.785065 3.58234 0.00183105 5.45071 0 7.43053V7.4342C0.000228882 8.63251 0.315056 9.84135 0.912666 10.9448L0.0204849 15L4.12239 14.067C5.16129 14.5905 6.32046 14.8666 7.48959 14.867H7.49256C9.4828 14.867 11.3603 14.094 12.7789 12.6904C14.2011 11.2833 14.9847 9.41734 14.9856 7.43626C14.9862 5.46913 14.1998 3.6018 12.7711 2.17827ZM7.49245 13.6963H7.48981C6.44005 13.6958 5.39989 13.4323 4.48196 12.9339L4.28799 12.8286L1.5604 13.449L2.15286 10.7564L2.03865 10.5595C1.47079 9.58019 1.17073 8.49918 1.17073 7.43294C1.1729 3.98174 4.00852 1.17073 7.49222 1.17073C9.17519 1.17142 10.7565 1.82384 11.9449 3.00762C13.1512 4.20971 13.8153 5.78236 13.8147 7.43591C13.8134 10.8879 10.9772 13.6963 7.49245 13.6963Z" fill="white"/>
<path d="M5.45368 4.15615H5.12524C5.01091 4.15615 4.82529 4.19895 4.66827 4.36981C4.51115 4.54079 4.06837 4.95403 4.06837 5.79449C4.06837 6.63494 4.68258 7.44701 4.76818 7.56111C4.8539 7.6751 5.95379 9.45488 7.69581 10.1396C9.1436 10.7086 9.43829 10.5954 9.75243 10.5669C10.0667 10.5385 10.7665 10.1538 10.9093 9.75494C11.0521 9.35612 11.0521 9.01417 11.0093 8.94276C10.9664 8.87158 10.8521 8.82889 10.6808 8.74352C10.5093 8.65803 9.66934 8.2378 9.51221 8.1807C9.35509 8.12382 9.24088 8.09532 9.12655 8.26641C9.01222 8.43716 8.67565 8.83221 8.57563 8.94619C8.47572 9.06029 8.3757 9.07459 8.20427 8.98911C8.03284 8.90339 7.4865 8.71983 6.83178 8.13801C6.32217 7.68517 5.96855 7.1077 5.86853 6.93672C5.76862 6.76586 5.85789 6.67339 5.94383 6.58814C6.02085 6.51169 6.12488 6.40709 6.21059 6.30741C6.2962 6.20762 6.32057 6.13644 6.37779 6.02245C6.4349 5.90847 6.40629 5.80868 6.36349 5.7233C6.32057 5.63782 5.99167 4.79313 5.83923 4.4553C5.71083 4.1708 5.57579 4.16119 5.45368 4.15615Z" fill="white"/>
</svg>
